<svg width="32" height="32" viewBox="0 0 32 32" fill="none" xmlns="http://www.w3.org/2000/svg">
<path d="M6.94503 17.3331H21.8384L15.3317 23.8398C14.8117 24.3598 14.8117 25.2131 15.3317 25.7331C15.8517 26.2531 16.6917 26.2531 17.2117 25.7331L25.9984 16.9464C26.5184 16.4264 26.5184 15.5864 25.9984 15.0664L17.225 6.26645C16.9759 6.01678 16.6377 5.87646 16.285 5.87646C15.9323 5.87646 15.5941 6.01678 15.345 6.26645C14.825 6.78645 14.825 7.62645 15.345 8.14645L21.8384 14.6664H6.94503C6.21169 14.6664 5.61169 15.2664 5.61169 15.9998C5.61169 16.7331 6.21169 17.3331 6.94503 17.3331Z" fill="#5197D7"/>
</svg>
